<?xml version="1.0" encoding="UTF-8" standalone="no"?>
<!-- Created with Inkscape (http://www.inkscape.org/) -->

<svg
   xmlns:dc="http://purl.org/dc/elements/1.1/"
   xmlns:cc="http://creativecommons.org/ns#"
   xmlns:rdf="http://www.w3.org/1999/02/22-rdf-syntax-ns#"
   xmlns:svg="http://www.w3.org/2000/svg"
   xmlns="http://www.w3.org/2000/svg"
   xmlns:sodipodi="http://sodipodi.sourceforge.net/DTD/sodipodi-0.dtd"
   xmlns:inkscape="http://www.inkscape.org/namespaces/inkscape"
   width="210mm"
   height="297mm"
   viewBox="0 0 210 297"
   version="1.1"
   id="svg8"
   inkscape:version="0.92.3 (2405546, 2018-03-11)"
   sodipodi:docname="poly_holes.svg"
   inkscape:export-filename="C:\Users\thomas\Documents\code\iso\app_iso\screenshots\usage\holes_differential.png"
   inkscape:export-xdpi="600"
   inkscape:export-ydpi="600">
  <defs
     id="defs2">
    <marker
       inkscape:stockid="Arrow1Lend"
       orient="auto"
       refY="0.0"
       refX="0.0"
       id="Arrow1Lend"
       style="overflow:visible;"
       inkscape:isstock="true">
      <path
         id="path1046"
         d="M 0.0,0.0 L 5.0,-5.0 L -12.5,0.0 L 5.0,5.0 L 0.0,0.0 z "
         style="fill-rule:evenodd;stroke:#000000;stroke-width:1pt;stroke-opacity:1;fill:#000000;fill-opacity:1"
         transform="scale(0.8) rotate(180) translate(12.5,0)" />
    </marker>
    <marker
       inkscape:stockid="Arrow1Lend"
       orient="auto"
       refY="0"
       refX="0"
       id="Arrow1Lend-9"
       style="overflow:visible"
       inkscape:isstock="true">
      <path
         inkscape:connector-curvature="0"
         id="path1046-4"
         d="M 0,0 5,-5 -12.5,0 5,5 Z"
         style="fill:#000000;fill-opacity:1;fill-rule:evenodd;stroke:#000000;stroke-width:1.00000003pt;stroke-opacity:1"
         transform="matrix(-0.8,0,0,-0.8,-10,0)" />
    </marker>
    <marker
       inkscape:stockid="Arrow1Lend"
       orient="auto"
       refY="0"
       refX="0"
       id="Arrow1Lend-9-9"
       style="overflow:visible"
       inkscape:isstock="true">
      <path
         inkscape:connector-curvature="0"
         id="path1046-4-9"
         d="M 0,0 5,-5 -12.5,0 5,5 Z"
         style="fill:#000000;fill-opacity:1;fill-rule:evenodd;stroke:#000000;stroke-width:1.00000003pt;stroke-opacity:1"
         transform="matrix(-0.8,0,0,-0.8,-10,0)" />
    </marker>
  </defs>
  <sodipodi:namedview
     id="base"
     pagecolor="#ffffff"
     bordercolor="#666666"
     borderopacity="1.0"
     inkscape:pageopacity="0.0"
     inkscape:pageshadow="2"
     inkscape:zoom="0.98994949"
     inkscape:cx="378.98541"
     inkscape:cy="523.48105"
     inkscape:document-units="mm"
     inkscape:current-layer="layer3"
     showgrid="false"
     inkscape:lockguides="true"
     inkscape:window-width="3200"
     inkscape:window-height="1721"
     inkscape:window-x="2391"
     inkscape:window-y="-9"
     inkscape:window-maximized="1" />
  <metadata
     id="metadata5">
    <rdf:RDF>
      <cc:Work
         rdf:about="">
        <dc:format>image/svg+xml</dc:format>
        <dc:type
           rdf:resource="http://purl.org/dc/dcmitype/StillImage" />
        <dc:title></dc:title>
      </cc:Work>
    </rdf:RDF>
  </metadata>
  <g
     inkscape:label="differential"
     inkscape:groupmode="layer"
     id="layer1"
     style="display:inline">
    <g
       id="g1870"
       transform="translate(0,-0.37722794)">
      <circle
         r="22.695665"
         cy="32.868599"
         cx="26.932079"
         id="path815-11"
         style="opacity:1;fill:#ff002c;fill-opacity:1;stroke:none;stroke-width:0.19171065;stroke-miterlimit:4;stroke-dasharray:0.76684261, 0.3834213;stroke-dashoffset:0;stroke-opacity:1" />
      <path
         sodipodi:nodetypes="sssssssssssssss"
         inkscape:connector-curvature="0"
         id="path815-5-6"
         d="m 37.703628,32.051602 c 0,1.203791 3.350994,1.062854 3.07012,2.17948 -0.675835,2.686756 -5.764639,3.588929 -7.721947,5.426385 -1.588948,1.491651 0.130574,4.10489 -2.01218,4.746115 -1.296796,0.38807 -2.671166,0.596548 -4.094231,0.596548 -1.409377,0 -2.771008,-0.20449 -4.056815,-0.585412 -3.391173,-1.004634 -2.862211,-3.687453 -4.684171,-6.631989 -1.347075,-2.177065 -5.517411,-4.292766 -5.517411,-7.041011 0,-1.059175 2.756727,-2.671161 2.975805,-3.664484 0.402592,-1.825447 -1.486235,-2.939807 -0.457885,-4.428756 1.370211,-1.98393 4.991133,-1.520629 7.166326,-2.601161 1.908461,-0.948033 2.298647,-3.564006 4.574151,-3.564006 2.80048,0 5.326504,2.782927 7.52978,4.177594 2.317283,1.466834 4.268456,1.60776 5.425687,4.117883 0.836408,1.814235 -2.197236,5.143983 -2.197229,7.272814 z"
         style="opacity:1;fill:#1221ef;fill-opacity:1;stroke:none;stroke-width:0.120441;stroke-miterlimit:4;stroke-dasharray:0.48176403, 0.24088201;stroke-dashoffset:0;stroke-opacity:1" />
    </g>
    <path
       style="opacity:1;fill:#ff002c;fill-opacity:1;stroke:none;stroke-width:0.19171065;stroke-miterlimit:4;stroke-dasharray:0.76684261, 0.38342129;stroke-dashoffset:0;stroke-opacity:1"
       d="M 98.208634,9.7955454 A 22.695664,22.695664 0 0 0 75.512794,32.491371 22.695664,22.695664 0 0 0 98.208634,55.187197 22.695664,22.695664 0 0 0 120.90445,32.491371 22.695664,22.695664 0 0 0 98.208634,9.7955454 Z m 0.0135,6.3105236 c 2.800486,0 5.326346,2.783063 7.529636,4.17773 2.31727,1.466834 4.2684,1.607792 5.42563,4.117915 0.8364,1.814234 -2.1971,5.143972 -2.1971,7.272802 0,1.203792 3.35091,1.062898 3.07004,2.179524 -0.67583,2.686755 -5.76448,3.58892 -7.7218,5.426377 -1.58896,1.49165 0.13033,4.104751 -2.01242,4.745976 -1.29679,0.388071 -2.670916,0.596659 -4.093986,0.596659 -1.40937,0 -2.77117,-0.204521 -4.05698,-0.585442 -3.39117,-1.004635 -2.86233,-3.687496 -4.6843,-6.632032 -1.34706,-2.177063 -5.51722,-4.292773 -5.51722,-7.041019 0,-1.059174 2.75674,-2.671117 2.97582,-3.664439 0.40259,-1.825447 -1.48631,-2.940006 -0.45796,-4.428955 1.37022,-1.98393 4.99107,-1.520689 7.16627,-2.601221 1.90846,-0.948032 2.29887,-3.563875 4.57437,-3.563875 z"
       id="path815-11-9"
       inkscape:connector-curvature="0" />
    <path
       style="fill:none;stroke:#000000;stroke-width:0.69811618;stroke-linecap:butt;stroke-linejoin:miter;stroke-miterlimit:4;stroke-dasharray:none;stroke-opacity:1;marker-end:url(#Arrow1Lend)"
       d="M 52.748936,32.491371 H 70.385934"
       id="path1041"
       inkscape:connector-curvature="0" />
  </g>
  <g
     inkscape:groupmode="layer"
     id="layer2"
     inkscape:label="supersposition"
     style="display:inline">
    <path
       style="opacity:0.6;fill:#00ea8e;fill-opacity:1;stroke:none;stroke-width:0.16753715;stroke-miterlimit:4;stroke-dasharray:0.6701487, 0.33507433;stroke-dashoffset:0;stroke-opacity:1"
       d="m 118.64295,118.39068 c 0,1.53696 3.22622,4.47911 2.80055,5.90477 -1.02424,3.43035 -8.12507,5.48398 -11.09142,7.82997 -2.4081,1.90448 -1.59929,6.15474 -4.84668,6.97344 -1.96532,0.49547 -6.51823,7.32324 -8.67493,7.32324 -2.13594,0 -7.8892,-6.08123 -9.83788,-6.56759 -5.13941,-1.28267 -4.29442,-4.83384 -7.05565,-8.59332 -2.04153,-2.77958 -10.73016,-7.82379 -10.73016,-11.33265 0,-1.35231 7.43264,-6.0051 7.76466,-7.27333 0.61015,-2.33066 0.31922,-3.59953 1.87772,-5.50056 2.07659,-2.53301 2.09943,-5.46276 5.396,-6.84234 2.89232,-1.210403 8.60569,-7.654048 12.05428,-7.654048 4.2442,0 5.33062,6.110135 8.66975,7.890788 3.51189,1.8728 9.55352,6.12066 11.30733,9.3255 1.2676,2.31635 2.36643,5.79813 2.36643,8.51613 z"
       id="path815-5-6-7-8-2"
       inkscape:connector-curvature="0"
       sodipodi:nodetypes="sssssssssssssss" />
    <path
       style="opacity:0.6;fill:#ff0e00;fill-opacity:1;stroke:none;stroke-width:0.12652573;stroke-miterlimit:4;stroke-dasharray:0.50610298, 0.25305148;stroke-dashoffset:0;stroke-opacity:1"
       d="m 65.160162,118.01376 c 0,1.16072 2.3502,2.76823 2.02873,3.8449 -0.77352,2.59064 -6.82636,2.29827 -9.06658,4.06999 -1.81861,1.43828 0.94915,5.70143 -1.50332,6.31971 -1.48424,0.37419 -3.62848,3.24842 -5.25723,3.24842 -1.61309,0 -3.6285,-3.45152 -5.10016,-3.81882 -3.88134,-0.96869 -3.84714,-2.50948 -5.93245,-5.34868 -1.54178,-2.09917 -5.5152,-6.34748 -5.5152,-8.9974 0,-1.02128 1.21305,-2.69183 1.4638,-3.64961 0.46078,-1.76014 0.24107,-2.7184 1.41806,-4.15408 1.56826,-1.91295 3.65618,-1.93114 6.14578,-2.97301 2.18431,-0.91411 4.68728,-2.97159 7.29168,-2.97159 3.20527,0 6.09641,2.68336 8.61815,4.02813 2.65222,1.41435 4.88542,1.55024 6.20992,3.97056 0.9573,1.74933 -0.80118,4.37881 -0.80118,6.43148 z"
       id="path815-5-6-7-8"
       inkscape:connector-curvature="0"
       sodipodi:nodetypes="sssssssssssssss" />
    <path
       style="opacity:0.6;fill:#1221ef;fill-opacity:1;stroke:none;stroke-width:0.10150976;stroke-miterlimit:4;stroke-dasharray:0.40603909, 0.20301953;stroke-dashoffset:0;stroke-opacity:1"
       d="m 26.247215,120.65371 c 0,1.02335 2.80007,0.90354 2.56537,1.85278 -0.56472,2.28402 -4.8169,3.05096 -6.45241,4.61299 -1.32772,1.26805 0.1091,3.48958 -1.68137,4.03468 -1.0836,0.32991 -2.23201,0.50713 -3.42112,0.50713 -1.17766,0 -2.31544,-0.17384 -3.38985,-0.49766 -2.83364,-0.85404 -2.39165,-3.13471 -3.9140698,-5.63787 -1.1256,-1.85073 -4.61031,-3.64929 -4.61031,-5.98559 0,-0.9004 2.3035,-2.27076 2.48656,-3.11518 0.33641,-1.55182 -1.24189,-2.49914 -0.3826,-3.7649 1.14494,-1.68654 4.1705598,-1.29269 5.9881398,-2.21126 1.5947,-0.80592 1.92073,-3.02976 3.82213,-3.02976 2.34007,0 4.4508,2.36577 6.29185,3.55138 1.9363,1.24696 3.56669,1.36676 4.53367,3.50063 0.6989,1.54228 -1.836,4.37291 -1.83599,6.18263 z"
       id="path815-5-6-7"
       inkscape:connector-curvature="0"
       sodipodi:nodetypes="sssssssssssssss" />
    <g
       id="g1905"
       transform="translate(-2.8192553,0.82049649)">
      <path
         sodipodi:nodetypes="sssssssssssssss"
         inkscape:connector-curvature="0"
         id="path815-5-6-7-8-2-2"
         d="m 193.18874,117.57019 c 0,1.53695 3.22622,4.47911 2.80055,5.90477 -1.02425,3.43035 -8.12508,5.48398 -11.09143,7.82997 -2.40809,1.90447 -1.59928,6.15474 -4.84668,6.97343 -1.96533,0.49547 -6.51824,7.32324 -8.67494,7.32324 -2.13594,0 -7.8892,-6.08122 -9.83787,-6.56758 -5.13942,-1.28268 -4.29442,-4.83384 -7.05565,-8.59332 -2.04153,-2.77959 -10.73017,-7.8238 -10.73017,-11.33265 0,-1.35231 7.43264,-6.00511 7.76467,-7.27333 0.61014,-2.33067 0.31921,-3.59953 1.87771,-5.50057 2.0766,-2.533 2.09944,-5.46277 5.396,-6.842346 2.89233,-1.21039 8.6057,-7.654037 12.05429,-7.654037 4.2442,0 5.33062,6.110127 8.66974,7.890777 3.5119,1.872796 9.55354,6.120676 11.30735,9.325516 1.2676,2.31634 2.36642,5.79813 2.36643,8.51613 z"
         style="opacity:0.6;fill:#00ea8e;fill-opacity:1;stroke:none;stroke-width:0.16753717;stroke-miterlimit:4;stroke-dasharray:0.67014871, 0.33507433;stroke-dashoffset:0;stroke-opacity:1" />
      <path
         sodipodi:nodetypes="sssssssssssssss"
         inkscape:connector-curvature="0"
         id="path815-5-6-7-8-9"
         d="m 183.92922,118.58798 c 0,1.16073 2.35019,2.76824 2.02872,3.84491 -0.77352,2.59064 -6.82635,2.29827 -9.06657,4.06998 -1.81862,1.43828 0.94914,5.70144 -1.50332,6.31972 -1.48424,0.37418 -3.62848,3.24842 -5.25724,3.24842 -1.61309,0 -3.6285,-3.45152 -5.10016,-3.81882 -3.88134,-0.96869 -3.84714,-2.50948 -5.93244,-5.34868 -1.54178,-2.09917 -5.51521,-6.34749 -5.51521,-8.99741 0,-1.02128 1.21306,-2.69183 1.4638,-3.6496 0.46078,-1.76014 0.24108,-2.7184 1.41807,-4.15409 1.56826,-1.91295 3.65617,-1.93114 6.14578,-2.97301 2.18431,-0.9141 4.68727,-2.97159 7.29168,-2.97159 3.20527,0 6.0964,2.68337 8.61814,4.02814 2.65223,1.41435 4.88543,1.55023 6.20992,3.97056 0.95731,1.74933 -0.80118,4.37881 -0.80117,6.43147 z"
         style="opacity:0.6;fill:#ff0e00;fill-opacity:1;stroke:none;stroke-width:0.12652573;stroke-miterlimit:4;stroke-dasharray:0.50610299, 0.25305148;stroke-dashoffset:0;stroke-opacity:1" />
      <path
         sodipodi:nodetypes="sssssssssssssss"
         inkscape:connector-curvature="0"
         id="path815-5-6-7-3"
         d="m 178.84513,119.74627 c 0,1.02334 2.80007,0.90353 2.56538,1.85278 -0.56473,2.28402 -4.8169,3.05096 -6.45242,4.61299 -1.32772,1.26805 0.10911,3.48957 -1.68136,4.03468 -1.0836,0.3299 -2.23202,0.50712 -3.42112,0.50712 -1.17767,0 -2.31544,-0.17383 -3.38985,-0.49766 -2.83365,-0.85403 -2.39165,-3.13471 -3.91407,-5.63787 -1.12561,-1.85073 -4.61032,-3.64929 -4.61032,-5.98558 0,-0.90041 2.30351,-2.27076 2.48657,-3.11518 0.3364,-1.55182 -1.24189,-2.49914 -0.38261,-3.7649 1.14494,-1.68655 4.17056,-1.2927 5.98814,-2.21126 1.5947,-0.80592 1.92074,-3.02977 3.82214,-3.02977 2.34006,0 4.45079,2.36578 6.29184,3.55138 1.93631,1.24696 3.5667,1.36676 4.53367,3.50063 0.6989,1.54229 -1.836,4.37291 -1.83599,6.18264 z"
         style="opacity:0.6;fill:#1221ef;fill-opacity:1;stroke:none;stroke-width:0.10150976;stroke-miterlimit:4;stroke-dasharray:0.40603909, 0.20301953;stroke-dashoffset:0;stroke-opacity:1" />
    </g>
    <path
       style="fill:none;stroke:#000000;stroke-width:0.69811618;stroke-linecap:butt;stroke-linejoin:miter;stroke-miterlimit:4;stroke-dasharray:none;stroke-opacity:1;marker-end:url(#Arrow1Lend-9)"
       d="m 120.71665,119.54018 h 17.637"
       id="path1041-7"
       inkscape:connector-curvature="0" />
  </g>
  <g
     inkscape:groupmode="layer"
     id="layer3"
     inkscape:label="decoupe"
     style="display:inline">
    <g
       id="g1910"
       transform="translate(-0.63699633,111.50551)">
      <path
         inkscape:connector-curvature="0"
         id="path815-5-6-7-8-2-2-6-0"
         d="m 166.96744,159.29518 c -3.44858,0 -9.16172,6.44392 -12.05405,7.65431 -3.29656,1.37958 -3.31945,4.30896 -5.39605,6.84196 -1.5585,1.90104 -1.26778,3.17029 -1.87792,5.50096 -0.33203,1.26822 -7.76439,5.92063 -7.76439,7.27294 0,3.50885 8.68857,8.55305 10.7301,11.33264 2.76123,3.75948 1.91596,7.3106 7.05538,8.59327 1.94867,0.48636 7.70222,6.56756 9.83816,6.56756 2.1567,0 6.70959,-6.82759 8.67492,-7.32307 3.24741,-0.81869 2.43865,-5.06874 4.84673,-6.97321 2.96636,-2.34599 10.06706,-4.39966 11.09131,-7.83001 0.42567,-1.42567 -2.80034,-4.36812 -2.80034,-5.90507 0,-2.718 -1.09918,-6.19942 -2.36678,-8.51576 -1.75382,-3.20484 -7.79542,-7.45273 -11.30732,-9.32553 -3.33912,-1.78065 -4.42554,-7.89099 -8.66975,-7.89099 z m -0.94258,12.32018 c 3.20527,0 6.09633,2.6834 8.61807,4.02818 2.65223,1.41434 4.88547,1.54996 6.20996,3.9703 0.95731,1.74933 -0.8015,4.37899 -0.8015,6.43164 0,1.16073 2.35029,2.76806 2.02881,3.84473 -0.77352,2.59064 -6.8264,2.29833 -9.06663,4.07004 -1.8186,1.43828 0.9492,5.70175 -1.50326,6.32002 -1.48424,0.37419 -3.62827,3.24839 -5.25704,3.24839 -1.61309,0 -3.62881,-3.45159 -5.10047,-3.81889 -3.88134,-0.96869 -3.84715,-2.50983 -5.93245,-5.34903 -1.54178,-2.09917 -5.51491,-6.34746 -5.51491,-8.99738 0,-1.02128 1.21274,-2.69162 1.46348,-3.64939 0.46078,-1.76014 0.24152,-2.71858 1.41851,-4.15427 1.56826,-1.91295 3.65576,-1.93108 6.14537,-2.97295 2.18431,-0.9141 4.68765,-2.97139 7.29206,-2.97139 z"
         style="opacity:0.6;fill:#00ea8e;fill-opacity:1;stroke:none;stroke-width:0.16753718;stroke-miterlimit:4;stroke-dasharray:0.67014872, 0.33507432;stroke-dashoffset:0;stroke-opacity:1" />
      <path
         sodipodi:nodetypes="sssssssssssssss"
         inkscape:connector-curvature="0"
         id="path815-5-6-7-3-8-0"
         d="m 174.96747,187.20375 c 0,1.02334 2.80008,0.90353 2.56539,1.85278 -0.56473,2.28402 -4.8169,3.05096 -6.45242,4.61299 -1.32772,1.26805 0.1091,3.48957 -1.68137,4.03468 -1.08359,0.3299 -2.23201,0.50712 -3.42111,0.50712 -1.17767,0 -2.31544,-0.17383 -3.38985,-0.49766 -2.83365,-0.85403 -2.39165,-3.13471 -3.91407,-5.63787 -1.12561,-1.85073 -4.61032,-3.64929 -4.61032,-5.98558 0,-0.90041 2.30351,-2.27076 2.48657,-3.11518 0.3364,-1.55182 -1.24189,-2.49914 -0.38261,-3.7649 1.14494,-1.68655 4.17056,-1.2927 5.98814,-2.21126 1.5947,-0.80592 1.92074,-3.02977 3.82214,-3.02977 2.34006,0 4.45079,2.36578 6.29184,3.55138 1.93631,1.24696 3.5667,1.36676 4.53367,3.50063 0.6989,1.54229 -1.836,4.37291 -1.836,6.18264 z"
         style="opacity:0.6;fill:#1221ef;fill-opacity:1;stroke:none;stroke-width:0.10150976;stroke-miterlimit:4;stroke-dasharray:0.40603911, 0.20301953;stroke-dashoffset:0;stroke-opacity:1" />
      <path
         inkscape:connector-curvature="0"
         id="path815-5-6-7-8-9-1-51"
         d="m 166.02485,171.61536 c -2.60441,0 -5.10723,2.05729 -7.29154,2.97139 -2.48961,1.04187 -4.57762,1.06 -6.14588,2.97295 -1.17699,1.43569 -0.95722,2.39413 -1.418,4.15427 -0.25074,0.95777 -1.46399,2.62811 -1.46399,3.64939 0,2.64992 3.97364,6.89821 5.51542,8.99738 2.0853,2.8392 2.05112,4.38034 5.93246,5.34903 1.47166,0.3673 3.48685,3.81889 5.09994,3.81889 1.62877,0 3.77281,-2.87472 5.25705,-3.2489 2.45246,-0.61828 -0.31534,-4.88123 1.50326,-6.31951 2.24023,-1.77171 8.29312,-1.4794 9.06663,-4.07004 0.32148,-1.07667 -2.02829,-2.684 -2.02829,-3.84472 -1e-5,-2.05266 1.75829,-4.68232 0.80098,-6.43165 -1.32449,-2.42033 -3.55773,-2.55595 -6.20996,-3.9703 -2.52174,-1.34477 -5.4128,-4.02818 -8.61808,-4.02818 z m -0.047,2.35386 c 2.34006,0 4.45107,2.3656 6.29212,3.5512 1.93631,1.24697 3.5666,1.3667 4.53357,3.50057 0.6989,1.54228 -1.83606,4.37283 -1.83606,6.18256 0,1.02335 2.80043,0.90387 2.56573,1.85312 -0.56472,2.28402 -4.81731,3.05061 -6.45283,4.61264 -1.32772,1.26805 0.10944,3.48979 -1.68103,4.03489 -1.08359,0.32991 -2.2324,0.50695 -3.4215,0.50695 -1.17767,0 -2.31505,-0.17381 -3.38946,-0.49764 -2.83365,-0.85403 -2.39207,-3.13474 -3.91449,-5.6379 -1.12561,-1.85073 -4.61005,-3.64939 -4.61005,-5.98568 0,-0.90041 2.30361,-2.27064 2.48667,-3.11506 0.3364,-1.55182 -1.2422,-2.49887 -0.38292,-3.76463 1.14493,-1.68655 4.17068,-1.29267 5.98826,-2.21123 1.5947,-0.80592 1.92059,-3.02979 3.82199,-3.02979 z"
         style="opacity:0.6;fill:#ff0e00;fill-opacity:1;stroke:none;stroke-width:0.12652573;stroke-miterlimit:4;stroke-dasharray:0.506103, 0.25305148;stroke-dashoffset:0;stroke-opacity:1" />
    </g>
    <path
       style="opacity:0.6;fill:#00ea8e;fill-opacity:1;stroke:none;stroke-width:0.1675372;stroke-miterlimit:4;stroke-dasharray:0.67014873, 0.33507432;stroke-dashoffset:0;stroke-opacity:1"
       d="m 94.603924,270.80104 c -3.44858,0 -9.16172,6.44392 -12.05405,7.65431 -3.29656,1.37958 -3.31945,4.30896 -5.39605,6.84196 -1.5585,1.90104 -1.26778,3.17029 -1.87792,5.50096 -0.33203,1.26822 -7.764391,5.92063 -7.764391,7.27294 0,3.50885 8.688571,8.55305 10.730101,11.33264 2.76123,3.75948 1.91596,7.3106 7.05538,8.59327 1.94867,0.48636 7.70222,6.56756 9.83816,6.56756 2.156702,0 6.709596,-6.82759 8.674926,-7.32307 3.24741,-0.81869 2.43865,-5.06874 4.84673,-6.97321 2.96636,-2.34599 10.06706,-4.39966 11.09131,-7.83001 0.42567,-1.42567 -2.80034,-4.36812 -2.80034,-5.90507 0,-2.718 -1.09918,-6.19942 -2.36678,-8.51576 -1.75382,-3.20484 -7.79542,-7.45273 -11.30732,-9.32553 -3.339124,-1.78065 -4.425544,-7.89099 -8.669756,-7.89099 z m -0.94258,12.32018 c 3.205272,0 6.096332,2.6834 8.618076,4.02818 2.65223,1.41434 4.88547,1.54996 6.20996,3.9703 0.95731,1.74933 -0.8015,4.37899 -0.8015,6.43164 0,1.16073 2.35029,2.76806 2.02881,3.84473 -0.77352,2.59064 -6.8264,2.29833 -9.06663,4.07004 -1.818604,1.43828 0.9492,5.70175 -1.503264,6.32002 -1.48424,0.37419 -3.628272,3.24839 -5.257042,3.24839 -1.61309,0 -3.62881,-3.45159 -5.10047,-3.81889 -3.88134,-0.96869 -3.84715,-2.50983 -5.93245,-5.34903 -1.54178,-2.09917 -5.51491,-6.34746 -5.51491,-8.99738 0,-1.02128 1.21274,-2.69162 1.46348,-3.64939 0.46078,-1.76014 0.24152,-2.71858 1.41851,-4.15427 1.56826,-1.91295 3.65576,-1.93108 6.14537,-2.97295 2.18431,-0.9141 4.68765,-2.97139 7.29206,-2.97139 z"
       id="path815-5-6-7-8-2-2-6-0-1"
       inkscape:connector-curvature="0" />
    <path
       style="opacity:0.6;fill:#1221ef;fill-opacity:1;stroke:none;stroke-width:0.10150976;stroke-miterlimit:4;stroke-dasharray:0.40603911, 0.20301953;stroke-dashoffset:0;stroke-opacity:1"
       d="m 24.551873,298.7964 c 0,1.02334 2.80008,0.90353 2.565389,1.85278 -0.564729,2.28402 -4.816901,3.05096 -6.45242,4.61299 -1.327722,1.26805 0.109098,3.48957 -1.681372,4.03468 -1.083588,0.3299 -2.232009,0.50712 -3.421109,0.50712 -1.17767,0 -2.31544,-0.17383 -3.38985,-0.49766 -2.8336503,-0.85403 -2.3916503,-3.13471 -3.9140693,-5.63787 -1.12561,-1.85073 -4.6103204,-3.64929 -4.6103204,-5.98558 0,-0.90041 2.30351,-2.27076 2.48657,-3.11518 0.3364,-1.55182 -1.24189,-2.49914 -0.38261,-3.7649 1.1449404,-1.68655 4.1705594,-1.2927 5.9881397,-2.21126 1.5947,-0.80592 1.92074,-3.02977 3.82214,-3.02977 2.340061,0 4.450791,2.36578 6.291841,3.55138 1.936308,1.24696 3.5667,1.36676 4.53367,3.50063 0.698899,1.54229 -1.835999,4.37291 -1.835999,6.18264 z"
       id="path815-5-6-7-3-8-0-3"
       inkscape:connector-curvature="0"
       sodipodi:nodetypes="sssssssssssssss" />
    <path
       style="opacity:0.6;fill:#ff0e00;fill-opacity:1;stroke:none;stroke-width:0.12652573;stroke-miterlimit:4;stroke-dasharray:0.50610301, 0.25305148;stroke-dashoffset:0;stroke-opacity:1"
       d="m 47.966041,281.72621 c -2.60441,0 -5.10723,2.05729 -7.29154,2.97139 -2.48961,1.04187 -4.57762,1.06 -6.14588,2.97295 -1.17699,1.43569 -0.95722,2.39413 -1.418,4.15427 -0.25074,0.95777 -1.46399,2.62811 -1.46399,3.64939 0,2.64992 3.97364,6.89821 5.51542,8.99738 2.0853,2.8392 2.05112,4.38034 5.93246,5.34903 1.47166,0.3673 3.48685,3.81889 5.09994,3.81889 1.62877,0 3.772811,-2.87472 5.257049,-3.2489 2.45246,-0.61828 -0.315338,-4.88123 1.503262,-6.31951 2.24023,-1.77171 8.293119,-1.4794 9.066628,-4.07004 0.321482,-1.07667 -2.028288,-2.684 -2.028288,-3.84472 -1e-5,-2.05266 1.758289,-4.68232 0.800979,-6.43165 -1.324489,-2.42033 -3.557731,-2.55595 -6.209959,-3.9703 -2.521741,-1.34477 -5.412801,-4.02818 -8.618081,-4.02818 z m -0.047,2.35386 c 2.34006,0 4.45107,2.3656 6.29212,3.5512 1.936311,1.24697 3.5666,1.3667 4.53357,3.50057 0.698899,1.54228 -1.836061,4.37283 -1.836061,6.18256 0,1.02335 2.800433,0.90387 2.565731,1.85312 -0.564719,2.28402 -4.817311,3.05061 -6.45283,4.61264 -1.327719,1.26805 0.10944,3.48979 -1.68103,4.03489 -1.083591,0.32991 -2.232401,0.50695 -3.4215,0.50695 -1.17767,0 -2.31505,-0.17381 -3.38946,-0.49764 -2.83365,-0.85403 -2.39207,-3.13474 -3.91449,-5.6379 -1.12561,-1.85073 -4.61005,-3.64939 -4.61005,-5.98568 0,-0.90041 2.30361,-2.27064 2.48667,-3.11506 0.3364,-1.55182 -1.2422,-2.49887 -0.38292,-3.76463 1.14493,-1.68655 4.17068,-1.29267 5.98826,-2.21123 1.5947,-0.80592 1.92059,-3.02979 3.82199,-3.02979 z"
       id="path815-5-6-7-8-9-1-51-0"
       inkscape:connector-curvature="0" />
    <path
       style="fill:none;stroke:#000000;stroke-width:0.69811618;stroke-linecap:butt;stroke-linejoin:miter;stroke-miterlimit:4;stroke-dasharray:none;stroke-opacity:1;marker-end:url(#Arrow1Lend-9-9)"
       d="m 119.02133,297.68286 h 17.637"
       id="path1041-7-4"
       inkscape:connector-curvature="0" />
    <path
       style="opacity:0.6;fill:#ff0e00;fill-opacity:1;stroke:none;stroke-width:0.12652573;stroke-miterlimit:4;stroke-dasharray:0.50610299, 0.25305148;stroke-dashoffset:0;stroke-opacity:1"
       d="m 61.992755,185.90047 c 0,1.16072 2.350198,2.76823 2.02873,3.8449 -0.77352,2.59064 -6.826361,2.29827 -9.066581,4.06999 -1.81861,1.43828 0.94915,5.70142 -1.50332,6.31971 -1.48424,0.37419 -3.62848,3.24842 -5.25723,3.24842 -1.61309,0 -3.6285,-3.45152 -5.10016,-3.81882 -3.88134,-0.96869 -3.84714,-2.50948 -5.93245,-5.34868 -1.54178,-2.09917 -5.5152,-6.34748 -5.5152,-8.9974 0,-1.02128 1.21305,-2.69183 1.4638,-3.64961 0.46078,-1.76014 0.24107,-2.7184 1.41806,-4.15408 1.56826,-1.91295 3.65618,-1.93114 6.14578,-2.97301 2.18431,-0.91411 4.68728,-2.97159 7.29168,-2.97159 3.20527,0 6.09641,2.68336 8.61815,4.02813 2.652219,1.41436 4.885421,1.55025 6.20992,3.97057 0.9573,1.74932 -0.801179,4.3788 -0.801179,6.43147 z"
       id="path815-5-6-7-8-22"
       inkscape:connector-curvature="0"
       sodipodi:nodetypes="sssssssssssssss" />
    <path
       style="opacity:0.6;fill:#1221ef;fill-opacity:1;stroke:none;stroke-width:0.10150976;stroke-miterlimit:4;stroke-dasharray:0.40603911, 0.20301953;stroke-dashoffset:0;stroke-opacity:1"
       d="m 57.011315,241.72162 c 0,1.02334 2.80008,0.90353 2.565389,1.85278 -0.564729,2.28402 -4.816901,3.05096 -6.45242,4.61299 -1.327722,1.26805 0.109098,3.48957 -1.681372,4.03468 -1.083588,0.3299 -2.232009,0.50712 -3.421109,0.50712 -1.17767,0 -2.31544,-0.17383 -3.38985,-0.49766 -2.83365,-0.85403 -2.39165,-3.13471 -3.91407,-5.63787 -1.12561,-1.85073 -4.61032,-3.64929 -4.61032,-5.98558 0,-0.90041 2.30351,-2.27076 2.48657,-3.11518 0.3364,-1.55182 -1.24189,-2.49914 -0.38261,-3.7649 1.14494,-1.68655 4.17056,-1.2927 5.98814,-2.21126 1.5947,-0.80592 1.92074,-3.02977 3.82214,-3.02977 2.340061,0 4.450791,2.36578 6.291841,3.55138 1.936308,1.24696 3.5667,1.36676 4.53367,3.50063 0.698899,1.54229 -1.835999,4.37291 -1.835999,6.18264 z"
       id="path815-5-6-7-3-8-0-3-7"
       inkscape:connector-curvature="0"
       sodipodi:nodetypes="sssssssssssssss" />
    <flowRoot
       xml:space="preserve"
       id="flowRoot2372"
       style="font-style:normal;font-variant:normal;font-weight:normal;font-stretch:normal;font-size:40px;line-height:1.25;font-family:Impact;-inkscape-font-specification:Impact;letter-spacing:0px;word-spacing:0px;fill:#000000;fill-opacity:1;stroke:none"
       transform="matrix(0.64680291,0,0,0.64680291,271.02897,-88.986164)"><flowRegion
         id="flowRegion2374"><rect
           id="rect2376"
           width="455.71429"
           height="321.42856"
           x="-355.71429"
           y="520.37683" /></flowRegion><flowPara
         id="flowPara2378">=</flowPara></flowRoot>    <flowRoot
       xml:space="preserve"
       id="flowRoot2372-2"
       style="font-style:normal;font-variant:normal;font-weight:normal;font-stretch:normal;font-size:40px;line-height:1.25;font-family:Impact;-inkscape-font-specification:Impact;letter-spacing:0px;word-spacing:0px;fill:#000000;fill-opacity:1;stroke:none"
       transform="matrix(1.1023674,0,0,0.6468029,433.48609,-134.58255)"><flowRegion
         id="flowRegion2374-0"><rect
           id="rect2376-0"
           width="455.71429"
           height="321.42856"
           x="-355.71429"
           y="520.37683" /></flowRegion><flowPara
         id="flowPara2378-5">-</flowPara></flowRoot>    <path
       style="opacity:0.6;fill:#00ea8e;fill-opacity:1;stroke:none;stroke-width:0.16753717;stroke-miterlimit:4;stroke-dasharray:0.67014871, 0.33507433;stroke-dashoffset:0;stroke-opacity:1"
       d="m 119.49897,186.2774 c 0,1.53696 3.22622,4.47911 2.80055,5.90477 -1.02424,3.43035 -8.12507,5.48398 -11.09142,7.82997 -2.4081,1.90448 -1.59929,6.15474 -4.84668,6.97344 -1.96532,0.49547 -6.518234,7.32324 -8.674934,7.32324 -2.135939,0 -7.889197,-6.08123 -9.837877,-6.56759 -5.13941,-1.28267 -4.29442,-4.83384 -7.05565,-8.59332 -2.04153,-2.77958 -10.73016,-7.82379 -10.73016,-11.33265 0,-1.35231 7.43264,-6.0051 7.76466,-7.27333 0.61015,-2.33066 0.31922,-3.59953 1.87772,-5.50056 2.07659,-2.53301 2.09943,-5.46276 5.396,-6.84234 2.89232,-1.21041 8.605688,-7.65405 12.054277,-7.65405 4.244204,0 5.330624,6.11013 8.669754,7.89079 3.51189,1.8728 9.55352,6.12066 11.30733,9.3255 1.2676,2.31635 2.36643,5.79813 2.36643,8.51613 z"
       id="path815-5-6-7-8-2-5"
       inkscape:connector-curvature="0"
       sodipodi:nodetypes="sssssssssssssss" />
    <flowRoot
       xml:space="preserve"
       id="flowRoot2372-2-2"
       style="font-style:normal;font-variant:normal;font-weight:normal;font-stretch:normal;font-size:40px;line-height:1.25;font-family:Impact;-inkscape-font-specification:Impact;letter-spacing:0px;word-spacing:0px;fill:#000000;fill-opacity:1;stroke:none"
       transform="matrix(1.1023674,0,0,0.6468029,481.83748,-134.58255)"><flowRegion
         id="flowRegion2374-0-7"><rect
           id="rect2376-0-2"
           width="455.71429"
           height="321.42856"
           x="-355.71429"
           y="520.37683" /></flowRegion><flowPara
         id="flowPara2378-5-9">-</flowPara></flowRoot>    <path
       style="opacity:0.6;fill:#ff0e00;fill-opacity:1;stroke:none;stroke-width:0.12652573;stroke-miterlimit:4;stroke-dasharray:0.506103, 0.25305148;stroke-dashoffset:0;stroke-opacity:1"
       d="m 110.34415,239.08165 c 0,1.16072 2.3502,2.76823 2.02873,3.8449 -0.77352,2.59064 -6.82636,2.29827 -9.06658,4.06999 -1.81861,1.43828 0.94915,5.70142 -1.50332,6.31971 -1.48424,0.37419 -3.628484,3.24842 -5.257233,3.24842 -1.613093,0 -3.628503,-3.45152 -5.100163,-3.81882 -3.88134,-0.96869 -3.84714,-2.50948 -5.93245,-5.34868 -1.54178,-2.09917 -5.515201,-6.34748 -5.515201,-8.9974 0,-1.02128 1.21305,-2.69183 1.4638,-3.64961 0.460781,-1.76014 0.241071,-2.7184 1.418061,-4.15408 1.56826,-1.91295 3.65618,-1.93114 6.14578,-2.97301 2.18431,-0.91411 4.68728,-2.97159 7.291683,-2.97159 3.205269,0 6.096413,2.68336 8.618153,4.02813 2.65222,1.41435 4.88542,1.55024 6.20992,3.97056 0.9573,1.74933 -0.80118,4.37881 -0.80118,6.43148 z"
       id="path815-5-6-7-8-22-5"
       inkscape:connector-curvature="0"
       sodipodi:nodetypes="sssssssssssssss" />
    <flowRoot
       xml:space="preserve"
       id="flowRoot2372-5"
       style="font-style:normal;font-variant:normal;font-weight:normal;font-stretch:normal;font-size:40px;line-height:1.25;font-family:Impact;-inkscape-font-specification:Impact;letter-spacing:0px;word-spacing:0px;fill:#000000;fill-opacity:1;stroke:none"
       transform="matrix(0.6468029,0,0,0.6468029,319.38036,-88.986159)"><flowRegion
         id="flowRegion2374-5"><rect
           id="rect2376-8"
           width="455.71429"
           height="321.42856"
           x="-355.71429"
           y="520.37683" /></flowRegion><flowPara
         id="flowPara2378-7">=</flowPara></flowRoot>  </g>
</svg>
